####
#
# OBJ File Generated by Meshlab
#
####
# Object gripper_base_new.obj
#
# Vertices: 121
# Faces: 238
#
####
vn -0.890685 -0.075694 0.448276
v -0.043100 -0.020000 -0.054501
vn -0.995680 -0.046955 -0.080103
v -0.043100 -0.019997 -0.068064
vn -0.997173 0.074142 0.012190
v -0.043100 0.019997 -0.068077
vn -0.942369 0.108074 0.316641
v -0.043100 0.020000 -0.054501
vn -0.996246 -0.010535 -0.085925
v -0.043161 -0.014945 -0.068941
vn -0.992977 0.066907 -0.097567
v -0.043107 0.020090 -0.068576
vn -0.995843 -0.090199 -0.012717
v -0.042970 -0.020703 -0.068427
vn -0.984521 0.002760 -0.175242
v -0.042930 0.002234 -0.070546
vn -0.978989 -0.006042 -0.203825
v -0.042921 -0.006705 -0.070474
vn -0.982776 -0.057522 -0.175621
v -0.042925 -0.020051 -0.069419
vn -0.985245 0.010892 -0.170804
v -0.042918 0.014546 -0.069987
vn -0.973800 -0.110590 -0.198707
v -0.042910 -0.020694 -0.069195
vn -0.972230 0.146179 -0.182758
v -0.042910 0.020694 -0.069195
vn -0.658522 -0.246705 0.710975
v -0.042904 -0.021236 -0.054501
vn -0.983857 0.178886 0.004941
v -0.042939 0.020859 -0.068099
vn -0.106958 0.037717 0.993548
v -0.042904 0.021236 -0.054501
vn -0.876274 0.480756 -0.031901
v -0.042978 0.021714 -0.068095
vn -0.610043 -0.697820 0.375358
v -0.041471 -0.023521 -0.054499
vn -0.799538 0.523106 -0.295127
v -0.042328 0.021988 -0.069456
vn -0.918580 -0.354985 -0.173770
v -0.043042 -0.021637 -0.067982
vn -0.704417 -0.666969 -0.242794
v -0.041854 -0.022564 -0.069533
vn -0.704340 0.668385 -0.239096
v -0.041854 0.022564 -0.069533
vn -0.573944 0.818867 0.006677
v -0.041492 0.023184 -0.068431
vn -0.560394 -0.822533 -0.096942
v -0.041471 -0.023210 -0.068214
vn -0.785603 0.556824 0.269768
v -0.041893 0.022794 -0.054501
vn -0.584796 -0.785397 -0.202890
v -0.041282 -0.023048 -0.069566
vn -0.607595 0.762181 -0.223404
v -0.041282 0.023048 -0.069566
vn -0.473706 -0.871623 -0.125997
v -0.040619 -0.023643 -0.068478
vn -0.449667 0.880746 0.148610
v -0.040509 0.023700 -0.068484
vn -0.424964 -0.900316 -0.094010
v -0.040400 -0.023758 -0.068490
vn -0.345603 -0.938193 -0.018785
v -0.040337 -0.023804 -0.067996
vn -0.419322 0.907802 -0.008058
v -0.040337 0.023804 -0.067996
vn -0.212606 0.842355 0.495215
v -0.040290 0.023815 -0.054427
vn -0.058143 -0.873374 0.483567
v -0.039100 -0.024000 -0.054501
vn -0.042368 0.771438 0.634893
v -0.039099 0.024000 -0.054501
vn -0.929151 -0.008365 -0.369607
v -0.032900 -0.000001 -0.114703
vn -0.907956 -0.101388 -0.406615
v -0.032645 -0.004085 -0.114701
vn -0.803891 0.240931 -0.543794
v -0.031680 0.008876 -0.114701
vn -0.600856 -0.150229 -0.785113
v -0.031764 -0.007970 -0.115201
vn -0.667934 0.079510 -0.739961
v -0.032480 0.004303 -0.115201
vn -0.806419 -0.327724 -0.492225
v -0.030633 -0.012002 -0.114701
vn -0.692295 -0.420018 -0.586782
v -0.029043 -0.015466 -0.114692
vn -0.809899 0.361008 -0.462317
v -0.030176 0.013108 -0.114700
vn -0.507042 0.258503 -0.822243
v -0.027970 0.017015 -0.115201
vn -0.516158 0.442432 -0.733372
v -0.025339 0.020744 -0.115201
vn -0.020936 0.985332 0.169360
v -0.016560 0.027501 -0.070502
vn -0.572028 0.648014 -0.502854
v -0.022456 0.024045 -0.114701
vn -0.463037 -0.550157 -0.694928
v -0.020364 -0.025560 -0.115200
vn -0.600430 -0.744286 -0.292442
v -0.020076 -0.026047 -0.114702
vn -0.482927 -0.817925 -0.312698
v -0.017204 -0.028043 -0.114701
vn -0.013864 -0.987576 0.156529
v -0.016440 -0.027500 -0.070496
vn -0.433593 -0.789659 -0.434093
v -0.015629 -0.028871 -0.114701
vn -0.540346 0.755376 -0.370720
v -0.018973 0.026878 -0.114700
vn -0.356476 0.636415 -0.684033
v -0.015178 0.029132 -0.115201
vn -0.051386 -0.139900 -0.988831
v -0.012995 -0.030163 -0.115201
vn -0.046369 -0.989800 0.134705
v -0.013222 -0.029610 -0.084555
vn -0.332527 0.921510 -0.200614
v -0.011018 0.031000 -0.114701
vn -0.144685 -0.987460 0.063161
v -0.006425 -0.032303 -0.102330
vn -0.114836 0.992894 0.031215
v -0.006008 0.032407 -0.103781
vn -0.181133 0.804010 -0.566355
v -0.006422 0.032279 -0.115201
vn -0.060356 -0.995612 0.071508
v -0.005126 -0.032585 -0.104117
vn -0.217770 -0.951577 -0.216973
v -0.009219 -0.031581 -0.114749
vn 0.042409 -0.916724 -0.397263
v -0.002471 -0.032695 -0.113093
vn 0.093402 -0.993719 0.061629
v 0.007306 -0.032082 -0.100738
vn -0.012216 0.996065 0.087782
v 0.004388 0.032714 -0.104971
vn 0.191177 -0.855551 -0.481127
v 0.007428 -0.032057 -0.115202
vn 0.116270 0.918617 -0.377657
v 0.004628 0.032741 -0.115201
vn 0.240151 -0.853576 0.462315
v 0.040250 -0.023826 -0.054501
vn 0.131803 0.988815 0.069810
v 0.006175 0.032366 -0.102704
vn 0.347354 -0.895847 -0.277134
v 0.012133 -0.030581 -0.114701
vn 0.047001 0.989797 0.134512
v 0.013222 0.029610 -0.084555
vn 0.024908 -0.989513 0.142283
v 0.012908 -0.029663 -0.084802
vn 0.265723 0.601371 -0.753488
v 0.010882 0.031016 -0.115201
vn 0.351499 -0.739787 -0.573728
v 0.015090 -0.029175 -0.114701
vn 0.451900 -0.841080 -0.297274
v 0.016069 -0.028709 -0.114701
vn 0.014794 0.987241 0.158548
v 0.016440 0.027500 -0.070496
vn 0.511603 0.778245 -0.364139
v 0.019014 0.026863 -0.114652
vn 0.436485 0.475540 -0.763769
v 0.022241 0.024061 -0.115201
vn 0.645362 -0.665437 -0.375103
v 0.023030 -0.023495 -0.114701
vn 0.014411 -0.983886 0.178217
v 0.016524 -0.027497 -0.070486
vn 0.719835 0.581918 -0.378429
v 0.025521 0.020763 -0.114701
vn 0.507289 -0.439312 -0.741392
v 0.024558 -0.021562 -0.115201
vn 0.534364 0.345499 -0.771418
v 0.026950 0.018461 -0.115201
vn 0.697481 -0.514208 -0.499110
v 0.025933 -0.020245 -0.114701
vn 0.606424 -0.311179 -0.731723
v 0.030194 -0.012651 -0.115201
vn 0.735811 -0.447891 -0.507913
v 0.028317 -0.016735 -0.114701
vn 0.810741 0.384298 -0.441604
v 0.030176 0.013108 -0.114700
vn 0.673997 0.188222 -0.714354
v 0.031549 0.008766 -0.115201
vn 0.680276 -0.185982 -0.708968
v 0.031605 -0.008553 -0.115201
vn 0.717030 -0.084706 -0.691877
v 0.032497 -0.004171 -0.115201
vn 0.870679 0.012534 -0.491693
v 0.032783 -0.000006 -0.115201
vn 0.922608 0.118846 -0.366974
v 0.032594 0.004481 -0.114700
vn 0.058485 -0.838714 0.541422
v 0.039100 -0.024000 -0.054501
vn 0.050760 0.871771 0.487277
v 0.039100 0.024000 -0.054501
vn 0.369247 -0.929108 -0.020387
v 0.040336 -0.023804 -0.067997
vn 0.235389 0.785399 0.572486
v 0.040336 0.023804 -0.054501
vn 0.462002 -0.884066 0.070580
v 0.040400 -0.023758 -0.068490
vn 0.460346 0.885739 -0.059565
v 0.040972 0.023642 -0.067658
vn 0.382385 -0.779089 0.496791
v 0.040619 -0.023643 -0.068478
vn 0.520548 -0.728438 0.445430
v 0.041450 -0.023237 -0.054501
vn 0.413034 -0.581179 -0.701166
v 0.019483 -0.026370 -0.115201
vn 0.542949 0.619470 0.566978
v 0.041450 0.023237 -0.054501
vn 0.573899 -0.817636 0.045955
v 0.041492 -0.023184 -0.068431
vn 0.702703 -0.666110 -0.250011
v 0.041853 -0.022562 -0.069540
vn 0.684541 0.692844 -0.226651
v 0.041853 0.022562 -0.069540
vn 0.802331 -0.518614 -0.295472
v 0.042327 -0.021987 -0.069463
vn 0.797085 0.527973 -0.293087
v 0.042327 0.021987 -0.069463
vn 0.564613 -0.412276 0.715011
v 0.042337 -0.022350 -0.054501
vn 0.879121 0.446620 -0.166362
v 0.043016 0.021664 -0.068040
vn 0.841984 -0.535983 0.061523
v 0.042983 -0.021709 -0.068091
vn 0.977536 -0.127391 -0.167914
v 0.042909 -0.020693 -0.069201
vn 0.950472 0.171124 -0.259462
v 0.042909 0.020693 -0.069201
vn 0.874922 -0.161723 0.456462
v 0.042905 -0.021249 -0.054501
vn 0.989377 0.044801 -0.138297
v 0.043100 0.020152 -0.068680
vn 0.985162 0.006615 -0.171500
v 0.042921 0.006705 -0.070474
vn 0.982840 -0.001754 -0.184451
v 0.042930 -0.002234 -0.070546
vn 0.976863 0.016402 -0.213238
v 0.042912 0.015667 -0.069939
vn 0.894080 -0.038266 0.446270
v 0.043100 -0.020004 -0.054501
vn 0.988465 -0.087693 -0.123477
v 0.043027 -0.020040 -0.068956
vn 0.993553 -0.008269 -0.113070
v 0.043100 -0.015275 -0.069217
vn 0.795938 0.189295 0.575021
v 0.043100 0.021078 -0.054501
# 121 vertices, 0 vertices normals

f 7//7 1//1 2//2
f 35//35 94//94 46//46
f 94//94 96//96 69//69
f 80//80 93//93 34//34
f 39//39 12//12 37//37
f 40//40 39//39 36//36
f 36//36 39//39 37//37
f 12//12 39//39 20//20
f 65//65 59//59 33//33
f 43//43 44//44 38//38
f 69//69 71//71 94//94
f 90//90 91//91 119//119
f 118//118 113//113 119//119
f 119//119 113//113 111//111
f 91//91 117//117 115//115
f 112//112 114//114 92//92
f 92//92 114//114 91//91
f 5//5 36//36 10//10
f 37//37 12//12 10//10
f 10//10 36//36 37//37
f 26//26 24//24 21//21
f 12//12 20//20 7//7
f 7//7 14//14 1//1
f 53//53 27//27 23//23
f 59//59 67//67 60//60
f 40//40 38//38 44//44
f 76//76 46//46 94//94
f 98//98 96//96 102//102
f 108//108 100//100 110//110
f 51//51 80//80 34//34
f 116//116 120//120 91//91
f 90//90 119//119 111//111
f 111//111 113//113 110//110
f 110//110 89//89 111//111
f 84//84 85//85 86//86
f 86//86 106//106 84//84
f 116//116 91//91 115//115
f 114//114 115//115 117//117
f 88//88 83//83 87//87
f 95//95 66//66 70//70
f 41//41 20//20 39//39
f 24//24 26//26 50//50
f 7//7 10//10 12//12
f 5//5 10//10 7//7
f 42//42 21//21 20//20
f 33//33 35//35 65//65
f 19//19 44//44 43//43
f 45//45 44//44 19//19
f 54//54 45//45 47//47
f 53//53 54//54 47//47
f 27//27 53//53 47//47
f 46//46 65//65 35//35
f 5//5 9//9 36//36
f 36//36 8//8 11//11
f 8//8 5//5 11//11
f 5//5 6//6 11//11
f 11//11 6//6 36//36
f 36//36 6//6 40//40
f 4//4 16//16 15//15
f 98//98 69//69 96//96
f 67//67 69//69 98//98
f 73//73 67//67 98//98
f 102//102 121//121 109//109
f 80//80 72//72 93//93
f 93//93 64//64 68//68
f 95//95 70//70 97//97
f 58//58 62//62 61//61
f 56//56 58//58 51//51
f 56//56 51//51 34//34
f 111//111 89//89 90//90
f 108//108 110//110 113//113
f 120//120 119//119 91//91
f 118//118 119//119 120//120
f 106//106 86//86 85//85
f 85//85 110//110 106//106
f 101//101 103//103 75//75
f 85//85 84//84 82//82
f 115//115 114//114 120//120
f 91//91 114//114 117//117
f 92//92 88//88 112//112
f 91//91 88//88 92//92
f 20//20 41//41 42//42
f 42//42 41//41 39//39
f 49//49 26//26 21//21
f 24//24 31//31 18//18
f 18//18 20//20 24//24
f 14//14 7//7 18//18
f 20//20 18//18 7//7
f 9//9 5//5 8//8
f 8//8 36//36 9//9
f 57//57 60//60 54//54
f 22//22 45//45 19//19
f 22//22 47//47 45//45
f 27//27 47//47 22//22
f 23//23 27//27 22//22
f 19//19 17//17 22//22
f 22//22 17//17 23//23
f 25//25 33//33 32//32
f 71//71 69//69 76//76
f 94//94 71//71 76//76
f 67//67 59//59 65//65
f 7//7 6//6 5//5
f 15//15 6//6 3//3
f 19//19 43//43 17//17
f 43//43 38//38 17//17
f 13//13 40//40 6//6
f 6//6 15//15 13//13
f 15//15 17//17 13//13
f 13//13 17//17 38//38
f 65//65 76//76 69//69
f 46//46 76//76 65//65
f 93//93 72//72 64//64
f 106//106 110//110 104//104
f 104//104 110//110 103//103
f 104//104 103//103 101//101
f 101//101 79//79 104//104
f 104//104 79//79 82//82
f 104//104 84//84 106//106
f 82//82 84//84 104//104
f 100//100 97//97 110//110
f 99//99 103//103 110//110
f 110//110 97//97 99//99
f 75//75 103//103 99//99
f 99//99 97//97 75//75
f 75//75 97//97 74//74
f 74//74 97//97 70//70
f 74//74 101//101 75//75
f 58//58 61//61 51//51
f 58//58 56//56 34//34
f 89//89 110//110 85//85
f 82//82 79//79 101//101
f 116//116 115//115 120//120
f 66//66 64//64 63//63
f 21//21 42//42 48//48
f 48//48 49//49 21//21
f 55//55 63//63 62//62
f 7//7 2//2 6//6
f 25//25 32//32 17//17
f 60//60 57//57 32//32
f 59//59 60//60 32//32
f 32//32 33//33 59//59
f 15//15 16//16 25//25
f 25//25 17//17 15//15
f 40//40 13//13 38//38
f 65//65 69//69 67//67
f 98//98 102//102 109//109
f 72//72 80//80 51//51
f 51//51 61//61 72//72
f 100//100 68//68 95//95
f 95//95 97//97 100//100
f 63//63 55//55 66//66
f 50//50 48//48 52//52
f 49//49 48//48 50//50
f 49//49 50//50 26//26
f 101//101 74//74 66//66
f 66//66 74//74 70//70
f 95//95 68//68 66//66
f 68//68 64//64 66//66
f 30//30 52//52 55//55
f 30//30 55//55 62//62
f 50//50 52//52 30//30
f 31//31 24//24 30//30
f 23//23 54//54 53//53
f 73//73 98//98 77//77
f 78//78 73//73 77//77
f 109//109 121//121 114//114
f 107//107 87//87 83//83
f 34//34 18//18 58//58
f 39//39 48//48 42//42
f 55//55 52//52 48//48
f 24//24 50//50 28//28
f 50//50 30//30 28//28
f 28//28 30//30 24//24
f 31//31 30//30 62//62
f 31//31 62//62 58//58
f 58//58 18//18 31//31
f 29//29 17//17 32//32
f 29//29 57//57 54//54
f 29//29 32//32 57//57
f 98//98 109//109 105//105
f 109//109 107//107 105//105
f 109//109 114//114 112//112
f 87//87 107//107 109//109
f 112//112 88//88 109//109
f 109//109 88//88 87//87
f 64//64 72//72 61//61
f 29//29 54//54 23//23
f 23//23 17//17 29//29
f 81//81 107//107 83//83
f 81//81 105//105 107//107
f 78//78 105//105 81//81
f 81//81 83//83 78//78
f 77//77 105//105 78//78
f 98//98 105//105 77//77
f 64//64 61//61 63//63
f 21//21 24//24 20//20
f 93//93 68//68 16//16
f 16//16 94//94 35//35
f 102//102 96//96 16//16
f 34//34 93//93 16//16
f 16//16 121//121 102//102
f 16//16 100//100 108//108
f 16//16 118//118 121//121
f 16//16 4//4 1//1
f 1//1 14//14 16//16
f 16//16 96//96 94//94
f 108//108 113//113 16//16
f 35//35 33//33 16//16
f 16//16 18//18 34//34
f 16//16 14//14 18//18
f 16//16 68//68 100//100
f 16//16 113//113 118//118
f 16//16 33//33 25//25
f 1//1 4//4 3//3
f 2//2 1//1 3//3
f 3//3 6//6 2//2
f 4//4 15//15 3//3
f 121//121 118//118 114//114
f 114//114 118//118 120//120
f 55//55 39//39 40//40
f 55//55 89//89 85//85
f 55//55 48//48 39//39
f 85//85 82//82 55//55
f 91//91 90//90 55//55
f 67//67 73//73 55//55
f 55//55 45//45 54//54
f 55//55 40//40 44//44
f 83//83 88//88 55//55
f 44//44 45//45 55//55
f 55//55 60//60 67//67
f 90//90 89//89 55//55
f 78//78 83//83 55//55
f 88//88 91//91 55//55
f 82//82 101//101 55//55
f 54//54 60//60 55//55
f 55//55 73//73 78//78
f 101//101 66//66 55//55
f 63//63 61//61 62//62
# 238 faces, 0 coords texture

# End of File
